PathFileType	3	(X/Y/Z)	static.trc																																																																												
DataRate	CameraRate	NumFrames	NumMarkers	Units	OrigDataRate	OrigDataStartFrame	OrigNumFrames																																																																								
100	100	11	26	mm	100	131	260																																																																								
Frame#	Time	RAcromium			LAcromium			C7			Clavicle			VSacral			RASIS			LASIS			RHip			LHip			RKneeLat			RKneeMed			LKneeMed			LKneeLat			LShankFront			RShankFront			RAnkleLat			RAnkleMed			LAnkleMed			LAnkleLat			LToeLat			LToeTip			RToeTip			RToeLat			RHeel			LHeel			T10		
		X1	Y1	Z1	X2	Y2	Z2	X3	Y3	Z3	X4	Y4	Z4	X5	Y5	Z5	X6	Y6	Z6	X7	Y7	Z7	X8	Y8	Z8	X9	Y9	Z9	X10	Y10	Z10	X11	Y11	Z11	X12	Y12	Z12	X13	Y13	Z13	X14	Y14	Z14	X15	Y15	Z15	X16	Y16	Z16	X17	Y17	Z17	X18	Y18	Z18	X19	Y19	Z19	X20	Y20	Z20	X21	Y21	Z21	X22	Y22	Z22	X23	Y23	Z23	X24	Y24	Z24	X25	Y25	Z25	X26	Y26	Z26
131	1.3	885.07782	1559.924	-451.90009	870.3692	1561.7742	-700.84534	842.25671	1583.7216	-570.65802	994.6413	1481.2014	-586.27209	789.6944	1086.4962	-557.18005	965.27502	1083.957	-431.40692	972.51147	1078.0768	-699.3996	896.48376	993.98859	-391.77081	891.86346	985.24719	-745.74963	904.68195	533.61133	-412.86566	880.00116	520.96887	-543.52258	900.27362	537.20239	-605.37994	899.89246	546.2735	-725.76166	926.74597	438.5961	-688.92145	947.31476	449.20496	-466.26035	832.96405	82.893501	-420.69913	854.5094	92.473106	-504.33194	853.63861	96.460808	-626.67883	819.67365	74.326805	-704.93115	973.21149	19.447987	-745.29895	1042.8866	24.106567	-679.66425	1044.3822	21.496088	-457.22699	972.57117	19.99279	-379.88745	747.15686	10.165664	-466.20126	747.93848	8.9347773	-650.80438	782.81378	1291.9456	-565.9989
132	1.31	885.15344	1559.9213	-451.94193	870.37134	1561.7738	-700.87604	842.30566	1583.7327	-570.66223	994.71783	1481.2291	-586.33099	789.72998	1086.4884	-557.2002	965.35626	1083.9757	-431.43906	972.58752	1078.0895	-699.35419	896.51465	993.98706	-391.81479	891.82831	985.28076	-745.74078	904.70605	533.58423	-412.89407	879.86279	521.013	-543.59705	900.11761	537.17834	-605.43042	899.86505	546.26337	-725.76007	926.7486	438.58328	-688.91449	947.31268	449.17331	-466.26898	832.96222	82.884651	-420.68817	854.54626	92.510139	-504.3046	853.89227	96.610321	-626.65802	819.59924	74.398514	-704.94409	972.93439	19.43671	-745.43921	1042.7275	23.826122	-679.83386	1044.4061	21.525198	-457.12286	972.57013	19.956392	-379.92609	747.12299	10.169344	-466.24872	747.9541	8.9124117	-650.8219	782.84167	1291.9539	-565.98895
133	1.32	885.24518	1559.9139	-451.99908	870.41406	1561.7682	-700.91174	842.3443	1583.7451	-570.69208	994.75012	1481.2295	-586.42456	789.7301	1086.4945	-557.20557	965.31982	1083.9585	-431.47809	972.55756	1078.0807	-699.37622	896.55438	993.9826	-391.78766	891.8252	985.24933	-745.7478	904.75879	533.57349	-412.89658	880.06812	520.9386	-543.54315	900.29761	537.30756	-605.37805	899.80341	546.25299	-725.888	926.72858	438.57541	-689.02362	947.31726	449.16766	-466.27054	832.94574	82.907349	-420.6947	854.57245	92.450706	-504.25089	853.66809	96.437874	-626.7417	819.59595	74.382584	-704.99225	973.17798	19.430864	-745.40106	1042.9071	24.157003	-679.70624	1044.4927	21.508924	-457.14926	972.56757	20.003807	-379.9397	747.17175	10.178773	-466.16702	747.93408	8.9108381	-650.81104	782.90967	1291.9611	-565.9978
134	1.33	885.31879	1559.9177	-452.04047	870.43292	1561.7798	-700.94836	842.39825	1583.7502	-570.71814	994.82135	1481.2196	-586.47723	789.74176	1086.5135	-557.20081	965.38763	1083.9325	-431.53204	972.50488	1078.0802	-699.47333	896.61731	993.9859	-391.8494	891.76959	985.25745	-745.77771	904.71014	533.54297	-412.94937	879.95044	520.9519	-543.61548	900.21069	537.22565	-605.47668	899.76746	546.28143	-725.93628	926.7453	438.54987	-689.01483	947.34412	449.22189	-466.28616	832.96655	82.894691	-420.6973	854.58679	92.444901	-504.33374	853.66528	96.45002	-626.75415	819.58966	74.328384	-704.95874	973.19183	19.554005	-745.24408	1042.6947	23.869644	-679.81445	1044.4165	21.493761	-457.19855	972.56793	20.014408	-379.91971	747.20007	10.146107	-466.1918	747.92242	8.9168863	-650.79816	782.89105	1291.9829	-565.97882
135	1.34	885.41235	1559.9366	-452.07065	870.47467	1561.7754	-700.9906	842.47437	1583.7528	-570.73578	994.85559	1481.2175	-586.55701	789.7713	1086.4999	-557.21228	965.42084	1083.8955	-431.52725	972.41211	1078.0929	-699.58081	896.65515	994.00519	-391.86877	891.71771	985.28479	-745.8219	904.74481	533.54303	-412.96973	879.82739	521.04828	-543.59674	900.25763	537.22827	-605.48236	899.74219	546.30493	-725.92957	926.76855	438.59869	-689.05475	947.37195	449.24176	-466.30579	832.97876	82.910744	-420.72748	854.56372	92.482689	-504.31543	853.6239	96.440048	-626.7796	819.58777	74.350716	-704.98492	973.25116	19.458897	-745.2821	1042.8832	24.187309	-679.72015	1044.4264	21.506821	-457.18201	972.55579	19.965191	-379.87775	747.15289	10.197684	-466.21603	747.92725	8.8986454	-650.80396	782.95728	1292.0177	-565.9541
136	1.35	885.5119	1559.9495	-452.08032	870.495	1561.7869	-700.99438	842.52087	1583.7648	-570.75702	994.90424	1481.2239	-586.56683	789.73468	1086.494	-557.1853	965.44373	1083.9066	-431.63065	972.45123	1078.0994	-699.52832	896.7594	994.00012	-391.87827	891.64636	985.28882	-745.82849	904.79401	533.5495	-412.96323	879.94006	521.008	-543.6051	900.22186	537.16943	-605.5401	899.72461	546.28101	-725.98663	926.71667	438.61868	-689.09583	947.28271	449.1525	-466.46579	832.95825	82.918602	-420.69907	854.57654	92.508408	-504.31604	853.64453	96.409599	-626.78766	819.55035	74.360435	-705.02435	973.24896	19.451145	-745.28552	1042.9083	24.184519	-679.6535	1044.4716	21.514277	-457.1767	972.54163	19.994616	-379.89841	747.15027	10.187155	-466.21136	747.90063	8.9205418	-650.81116	782.98022	1292.0188	-565.93494
137	1.36	885.64526	1559.9669	-452.10226	870.55518	1561.7988	-701.00452	842.58582	1583.7667	-570.76709	994.95392	1481.2269	-586.63464	789.76904	1086.502	-557.16559	965.54437	1083.9055	-431.70596	972.50055	1078.0995	-699.5177	896.77832	994.00153	-391.90881	891.58984	985.29266	-745.86127	904.79688	533.60229	-413.02289	879.94769	520.97028	-543.64923	900.28375	537.20978	-605.54395	899.64673	546.29321	-726.07092	926.7066	438.62308	-689.16406	947.3252	449.1676	-466.46268	833.08105	82.927254	-420.55228	854.58978	92.442291	-504.34393	853.63385	96.438667	-626.79126	819.57843	74.331993	-705.00629	973.20868	19.447607	-745.29535	1042.7324	23.885187	-679.8761	1044.4209	21.482786	-457.19318	972.59991	19.986601	-379.88837	747.16559	10.148395	-466.22754	747.92444	8.8878155	-650.82648	782.96985	1292.0509	-565.91217
138	1.37	885.70813	1559.986	-452.15109	870.56427	1561.8118	-701.03406	842.64148	1583.7683	-570.7923	995.02356	1481.2643	-586.69202	789.76007	1086.5115	-557.15326	965.47583	1083.8879	-431.79471	972.30646	1078.0529	-699.72882	896.86127	993.98999	-391.95285	891.56683	985.26349	-745.88507	904.84637	533.52814	-413.02444	879.83038	521.01282	-543.66394	900.34192	537.20007	-605.54578	899.63177	546.32166	-726.0813	926.68311	438.5798	-689.19531	947.36591	449.16733	-466.45956	832.98669	82.920235	-420.70703	854.6427	92.285126	-504.31323	853.60101	96.448441	-626.79419	819.57495	74.299942	-705.00067	973.20148	19.441574	-745.32306	1042.7056	23.881607	-679.88574	1044.3916	21.499454	-457.20154	972.4856	19.96682	-379.95651	747.11969	10.175542	-466.26266	747.92578	8.8928738	-650.82605	782.97046	1292.0696	-565.88623
139	1.38	885.8183	1559.9883	-452.18134	870.60217	1561.8435	-701.06659	842.70013	1583.7855	-570.78455	995.08655	1481.2733	-586.70966	789.81506	1086.4977	-557.14978	965.65802	1083.9414	-431.80618	972.27478	1078.132	-699.82697	896.88989	994.01221	-391.96417	891.52148	985.28369	-745.88788	904.86395	533.5788	-413.0625	879.88409	520.99701	-543.64044	900.30914	537.22028	-605.57996	899.61536	546.32001	-726.0769	926.62512	438.5751	-689.28162	947.40155	449.2475	-466.35156	832.96509	82.930443	-420.69937	854.61646	92.39917	-504.27646	853.61151	96.456207	-626.81531	819.57581	74.26387	-705.00739	973.22717	19.42033	-745.30237	1042.8492	24.168325	-679.73706	1044.4471	21.511084	-457.14609	972.48651	19.99597	-379.91412	747.1814	10.162456	-466.1955	747.88928	8.8823042	-650.80579	783.04236	1292.1085	-565.87476
140	1.39	885.93896	1560.0229	-452.17865	870.66333	1561.881	-701.09979	842.7749	1583.8024	-570.79285	995.16333	1481.2914	-586.81836	789.84863	1086.5278	-557.14026	965.69562	1083.8837	-431.82129	972.31305	1078.0865	-699.80914	896.94281	994.01489	-391.98206	891.43671	985.28387	-745.91144	904.91724	533.55786	-413.0636	879.91473	521.01794	-543.66388	900.3067	537.1795	-605.63257	899.55383	546.29474	-726.0965	926.65582	438.58084	-689.2948	947.43036	449.2226	-466.47171	833.13135	82.938568	-420.51672	854.65436	92.301956	-504.33743	853.65039	96.440514	-626.80383	819.58221	74.263107	-705.06055	973.25482	19.428587	-745.30426	1042.7373	23.928202	-679.91412	1044.502	21.513624	-457.1539	972.59338	19.974993	-379.96356	747.19427	10.154685	-466.1925	747.88873	8.8966703	-650.78918	783.05957	1292.1373	-565.82819
141	1.4	886.06464	1560.0592	-452.20605	870.68188	1561.9136	-701.12177	842.84015	1583.8129	-570.80115	995.23877	1481.3036	-586.86707	789.85681	1086.5377	-557.14417	965.75037	1083.9497	-431.89932	972.34796	1078.059	-699.7348	897.0224	994.00781	-392.0365	891.38281	985.29633	-745.94775	904.95209	533.50916	-413.05215	880.01007	521.01636	-543.68097	900.55713	537.17584	-605.51044	899.51508	546.30054	-726.06262	926.59399	438.60727	-689.29858	947.5849	449.26349	-466.35123	833.12872	82.942665	-420.55701	854.55206	92.509865	-504.31372	853.63995	96.450943	-626.81793	819.55188	74.294395	-705.01709	973.21979	19.433878	-745.31268	1042.764	23.930807	-679.92932	1044.4058	21.428757	-457.21912	972.58722	19.945353	-379.9939	747.18219	10.208504	-466.1954	747.91626	8.8973475	-650.81158	783.12769	1292.1437	-565.82495
